<svg xmlns="http://www.w3.org/2000/svg" version="1.1" xmlns:xlink="http://www.w3.org/1999/xlink" xmlns:svgjs="http://svgjs.dev/svgjs" width="380" height="800" preserveAspectRatio="none" viewBox="0 0 380 800"><g mask="url(&quot;#SvgjsMask1232&quot;)" fill="none"><rect width="380" height="800" x="0" y="0" fill="rgba(227, 165, 135, 1)"></rect><path d="M0,395.146C75.063,394.025,160.815,383.181,209.57,326.097C257.688,269.76,228.534,183.583,242.792,110.879C253.02,58.726,283.698,12.631,281.458,-40.468C279.066,-97.171,257.072,-149.326,229.717,-199.051C196.401,-259.613,169.863,-334.27,105.695,-359.965C41.02,-385.863,-34.023,-359.938,-96.843,-329.816C-154.037,-302.392,-183.264,-242.227,-229.781,-199.106C-283.671,-149.15,-366.611,-125.351,-391.853,-56.34C-418.041,15.258,-395.064,96.608,-363.293,165.91C-331.55,235.151,-278.049,291.769,-213.631,332.416C-149.567,372.84,-75.743,396.277,0,395.146" fill="#bf5c2d"></path><path d="M380 1113.037C438.75 1118.6979999999999 497.538 1091.266 542.981 1053.603 585.833 1018.087 605.956 964.025 623.518 911.211 639.56 862.966 647.644 812.879 639.727 762.657 631.884 712.902 608.745 668.236 578.827 627.715 546.895 584.465 514.874 529.828 461.747 521.597 408.473 513.3430000000001 366.687 565.108 317.526 587.233 276.437 605.726 229.442 610.2570000000001 196.483 640.982 161.508 673.587 143.307 718.442 128.139 763.788 110.21300000000002 817.38 78.97199999999998 875.388 100.61399999999998 927.591 122.27499999999998 979.8389999999999 188.903 992.748 236.027 1024.027 284.008 1055.875 322.676 1107.5140000000001 380 1113.037" fill="#fbf2ee"></path></g><defs><mask id="SvgjsMask1232"><rect width="380" height="800" fill="#ffffff"></rect></mask></defs></svg>